<svg width="163" height="40" viewBox="0 0 163 40" fill="none" xmlns="http://www.w3.org/2000/svg">
<path d="M44.1075 31.4686C44.1075 32.5924 43.661 33.6702 42.8664 34.4649C42.0717 35.2596 40.9939 35.706 39.8701 35.706H21.4327C20.3089 35.706 19.2311 35.2596 18.4364 34.4649C17.6417 33.6702 17.1953 32.5924 17.1953 31.4686C17.1953 30.3448 17.6417 29.267 18.4364 28.4723C19.2311 27.6777 20.3089 27.2312 21.4327 27.2312H39.8732C40.9962 27.2329 42.0727 27.6799 42.8666 28.4743C43.6604 29.2687 44.1066 30.3456 44.1075 31.4686Z" fill="#004FDA"/>
<path d="M20.4659 23.4093L6.98506 34.7173L6.95406 34.7421C6.55509 35.0769 6.09659 35.3335 5.60257 35.4984C4.79498 35.7717 3.9237 35.7948 3.10274 35.5648C2.28179 35.3347 1.5494 34.8622 1.00142 34.2091C0.453444 33.5559 0.1154 32.7526 0.0315283 31.9041C-0.0523439 31.0557 0.121862 30.2017 0.53135 29.4539C0.781819 28.9895 1.11846 28.5771 1.52327 28.2388L13.8727 17.8793L17.329 20.7776L17.673 21.069L17.7691 21.1465L18.1473 21.4565L20.4659 23.4093Z" fill="#F6E300"/>
<path d="M24.6721 17.7522C24.679 17.8554 24.679 17.9589 24.6721 18.0621V18.2326L24.6535 18.3907C24.6535 18.4403 24.6535 18.4899 24.6349 18.5364C24.6194 18.6325 24.5977 18.7286 24.576 18.8216C24.4683 19.3308 24.2665 19.8154 23.9809 20.2506C23.8048 20.5234 23.5967 20.7742 23.3609 20.9976L23.1998 21.1402L23.1533 21.1774L20.4658 23.4092L18.1471 21.4626L17.769 21.1526L17.6729 21.0751L17.3288 20.7837L13.8726 17.8855L17.3288 14.9841L17.6729 14.6958L17.769 14.6183L18.1316 14.3083L20.4658 12.3524L23.1626 14.6152L23.2555 14.6958L23.3206 14.7485L23.3454 14.7764C23.5798 14.9931 23.7879 15.2365 23.9654 15.5017C24.2246 15.8923 24.4154 16.3242 24.5295 16.7788C24.5295 16.7788 24.5295 16.7943 24.5295 16.8005C24.5295 16.8687 24.5637 16.9369 24.576 17.002C24.6008 17.1198 24.6194 17.2376 24.638 17.3585L24.6566 17.5259C24.6566 17.5724 24.6566 17.6189 24.6566 17.6685C24.6639 17.6959 24.6691 17.7239 24.6721 17.7522Z" fill="#FD0075"/>
<path d="M20.4658 12.343L18.1317 14.2989L17.769 14.6089L17.6729 14.6864L17.3289 14.9747L13.8726 17.8761L1.58826 7.56625L1.47977 7.47326C1.09298 7.14435 0.771252 6.74587 0.531242 6.29845C0.053982 5.43778 -0.10858 4.43775 0.0714946 3.47023C0.251569 2.50272 0.763033 1.62814 1.51798 0.996813C2.27293 0.365488 3.22421 0.0168477 4.20833 0.0108142C5.19244 0.00478075 6.14792 0.341731 6.91056 0.963752L6.96325 1.00715L6.99425 1.02885L20.4658 12.343Z" fill="#00BE9C"/>
<path d="M70.6974 25.1451C70.5324 24.5144 70.2128 23.9348 69.7674 23.4588C69.2816 22.9645 68.681 22.5982 68.0192 22.3925C67.1359 22.1221 66.2148 21.9965 65.2914 22.0205C64.8649 22.0193 64.4386 22.04 64.0143 22.0825C63.5927 22.1228 63.1928 22.1724 62.8116 22.2313C62.4303 22.2902 62.08 22.3553 61.7577 22.4296C61.4353 22.504 61.1656 22.5722 60.9517 22.6404L61.4229 25.6162C61.937 25.4328 62.4689 25.304 63.01 25.2318C63.6256 25.1395 64.2473 25.0939 64.8698 25.0955C65.8121 25.0955 66.4734 25.2856 66.8537 25.6658C67.047 25.8657 67.1973 26.103 67.2954 26.3631C67.3935 26.6233 67.4372 26.9008 67.424 27.1785V27.5257C67.1275 27.4462 66.8246 27.3922 66.5189 27.3645C66.0947 27.3195 65.6683 27.2988 65.2418 27.3025C64.5502 27.2995 63.8602 27.3701 63.1835 27.5133C62.5616 27.6369 61.9658 27.8676 61.4229 28.1952C60.9088 28.5046 60.4821 28.9399 60.183 29.4599C59.8604 30.0523 59.7021 30.7201 59.7242 31.3942C59.7037 32.0851 59.8393 32.7717 60.121 33.4028C60.3771 33.9382 60.7708 34.396 61.2617 34.7295C61.8 35.0854 62.4021 35.3338 63.0348 35.4611C63.7893 35.6167 64.5582 35.6915 65.3286 35.6843C66.4696 35.6966 67.6098 35.6178 68.7383 35.4487C69.6806 35.2916 70.4163 35.1552 70.9453 35.0395V27.3521C70.9624 26.6086 70.879 25.8662 70.6974 25.1451ZM67.424 32.7333C67.2256 32.7643 66.9622 32.7891 66.6305 32.8077C66.2988 32.8263 65.9516 32.8325 65.589 32.8325C65.0359 32.8605 64.4849 32.7452 63.9895 32.4977C63.7902 32.3711 63.6302 32.1916 63.5272 31.9791C63.4243 31.7667 63.3826 31.5298 63.4067 31.295C63.3965 31.0327 63.4657 30.7734 63.6051 30.551C63.7419 30.3483 63.9302 30.1857 64.1507 30.0799C64.404 29.9561 64.6765 29.8764 64.9566 29.8443C65.2813 29.8008 65.6086 29.78 65.9361 29.7823C66.2096 29.7833 66.4829 29.7999 66.7545 29.8319C66.9793 29.8523 67.2029 29.8854 67.424 29.9311V32.7333Z" fill="#F8F8F8"/>
<path d="M73.202 28.8896C73.1956 27.9809 73.3509 27.0782 73.6608 26.2238C73.949 25.4097 74.403 24.6642 74.9942 24.0345C75.5854 23.4049 76.3009 22.9049 77.0953 22.5661C77.9891 22.1883 78.9522 22.0024 79.9223 22.0205C81.158 22.006 82.383 22.251 83.5181 22.7397L82.7493 25.6907C82.377 25.5504 81.996 25.4344 81.6086 25.3435C81.1531 25.2397 80.687 25.1897 80.2199 25.1947C79.1288 25.1947 78.3146 25.5336 77.7773 26.2114C77.2094 26.9853 76.9249 27.9309 76.9713 28.8896C76.9713 30.0613 77.2224 30.9727 77.7277 31.6174C78.233 32.2622 79.1133 32.5846 80.3687 32.5846C80.8506 32.5806 81.3315 32.5391 81.807 32.4606C82.292 32.3838 82.7664 32.2507 83.2205 32.0638L83.7412 35.0892C83.2199 35.2965 82.6803 35.4542 82.1294 35.5603C81.4268 35.6971 80.7124 35.7636 79.9967 35.7587C78.9468 35.783 77.9022 35.6019 76.9218 35.2256C76.116 34.9055 75.3917 34.4099 74.8015 33.7749C74.2412 33.1502 73.8262 32.4092 73.5864 31.605C73.3233 30.7242 73.1938 29.8089 73.202 28.8896Z" fill="#F8F8F8"/>
<path d="M96.4379 25.1451C96.2729 24.5144 95.9533 23.9348 95.5079 23.4588C95.0221 22.9645 94.4215 22.5982 93.7597 22.3925C92.8764 22.1221 91.9553 21.9965 91.0319 22.0205C90.6054 22.0193 90.1791 22.04 89.7548 22.0825C89.3332 22.1228 88.9333 22.1724 88.5521 22.2313C88.1708 22.2902 87.8205 22.3553 87.4981 22.4296C87.1758 22.504 86.9061 22.5722 86.6922 22.6404L87.1634 25.6162C87.6775 25.4328 88.2094 25.304 88.7504 25.2318C89.3661 25.1395 89.9878 25.0939 90.6103 25.0955C91.5526 25.0955 92.2139 25.2856 92.5942 25.6658C92.7875 25.8657 92.9378 26.103 93.0359 26.3631C93.134 26.6233 93.1777 26.9008 93.1645 27.1785V27.5257C92.868 27.4462 92.5651 27.3922 92.2594 27.3645C91.8352 27.3195 91.4088 27.2988 90.9823 27.3025C90.2907 27.2995 89.6007 27.3701 88.924 27.5133C88.3021 27.6369 87.7063 27.8676 87.1634 28.1952C86.6493 28.5046 86.2226 28.9399 85.9234 29.4599C85.6009 30.0523 85.4425 30.7201 85.4647 31.3942C85.4442 32.0851 85.5798 32.7717 85.8615 33.4028C86.1176 33.9382 86.5112 34.396 87.0022 34.7295C87.5405 35.0854 88.1426 35.3338 88.7752 35.4611C89.5298 35.6167 90.2987 35.6915 91.0691 35.6843C92.2101 35.6966 93.3503 35.6178 94.4788 35.4487C95.4211 35.2916 96.1568 35.1552 96.6858 35.0395V27.3521C96.7029 26.6086 96.6195 25.8662 96.4379 25.1451ZM93.1645 32.7333C92.9661 32.7643 92.7027 32.7891 92.371 32.8077C92.0393 32.8263 91.6921 32.8325 91.3294 32.8325C90.7764 32.8605 90.2254 32.7452 89.73 32.4977C89.5307 32.3711 89.3707 32.1916 89.2677 31.9791C89.1648 31.7667 89.1231 31.5298 89.1472 31.295C89.137 31.0327 89.2062 30.7734 89.3456 30.551C89.4824 30.3483 89.6707 30.1857 89.8912 30.0799C90.1445 29.9561 90.417 29.8764 90.6971 29.8443C91.0217 29.8008 91.3491 29.78 91.6766 29.7823C91.9501 29.7833 92.2233 29.7999 92.495 29.8319C92.7198 29.8523 92.9434 29.8854 93.1645 29.9311V32.7333Z" fill="#F8F8F8"/>
<path d="M107.994 19.8353V22.6623C107.594 22.4849 107.179 22.3438 106.754 22.2407C106.303 22.1365 105.841 22.0866 105.378 22.0919C104.527 22.0751 103.683 22.2356 102.898 22.5631C102.191 22.8674 101.567 23.3348 101.075 23.927C100.554 24.5671 100.167 25.3048 99.9346 26.0968C99.6596 27.0263 99.5259 27.9918 99.5378 28.961C99.5233 29.9189 99.6786 30.8719 99.9966 31.7756C100.28 32.5739 100.732 33.3015 101.323 33.9082C101.926 34.5102 102.654 34.9717 103.456 35.2597C104.379 35.5869 105.353 35.7465 106.332 35.7309C106.779 35.7309 107.247 35.7092 107.734 35.6689C108.22 35.6286 108.701 35.5728 109.172 35.5077C109.643 35.4426 110.102 35.362 110.523 35.2721C110.945 35.1822 111.332 35.0862 111.664 34.987V19.2092L107.994 19.8353ZM107.994 32.4576C107.811 32.4917 107.582 32.5195 107.3 32.5443C107.018 32.5691 106.711 32.5815 106.37 32.5815C105.362 32.5815 104.6 32.2344 104.088 31.54C103.541 30.73 103.271 29.764 103.32 28.7874C103.32 26.4068 104.196 25.2165 105.948 25.2165C106.329 25.2165 106.708 25.2666 107.076 25.3653C107.395 25.4425 107.701 25.5679 107.982 25.7373L107.994 32.4576Z" fill="#F8F8F8"/>
<path d="M125.303 23.7192C124.228 22.5847 122.765 22.0184 120.914 22.0205C120.119 22.0244 119.332 22.1801 118.595 22.4793C117.845 22.7736 117.165 23.2213 116.599 23.7936C115.99 24.4149 115.513 25.153 115.198 25.9634C114.823 26.9315 114.642 27.9635 114.664 29.0012C114.657 29.91 114.795 30.8142 115.074 31.6794C115.331 32.4791 115.763 33.2117 116.338 33.8244C116.949 34.4526 117.689 34.9393 118.508 35.2503C119.487 35.617 120.526 35.7938 121.571 35.7711C122.035 35.771 122.498 35.7462 122.959 35.6967C123.422 35.6471 123.856 35.5851 124.261 35.5107C124.634 35.444 125.002 35.3571 125.365 35.2503C125.638 35.1694 125.903 35.0658 126.158 34.9403L125.662 31.9397C125.143 32.151 124.603 32.3049 124.051 32.3985C123.392 32.5228 122.724 32.5851 122.054 32.5845C121.162 32.6306 120.278 32.3965 119.525 31.9149C119.224 31.7112 118.972 31.4431 118.788 31.13C118.603 30.8169 118.491 30.4666 118.459 30.1047H126.828C126.843 29.9063 126.862 29.6769 126.878 29.4227C126.893 29.1686 126.902 28.9299 126.902 28.716C126.911 26.5152 126.377 24.8496 125.303 23.7192ZM118.459 27.5753C118.508 27.2586 118.587 26.9473 118.694 26.6454C118.794 26.3497 118.95 26.0761 119.153 25.8394C119.358 25.6018 119.611 25.4115 119.897 25.2815C120.232 25.1323 120.596 25.0603 120.963 25.0707C121.335 25.0584 121.705 25.1349 122.042 25.2939C122.318 25.4329 122.563 25.627 122.761 25.8642C122.952 26.0988 123.095 26.3683 123.183 26.6578C123.273 26.9602 123.327 27.2724 123.344 27.5877L118.459 27.5753Z" fill="#F8F8F8"/>
<path d="M137.057 28.493C137.057 27.3027 136.904 26.4595 136.598 25.9636C136.292 25.4676 135.767 25.2196 135.023 25.2196C134.791 25.2196 134.552 25.2196 134.304 25.2568C134.056 25.294 133.818 25.3095 133.585 25.3436V35.4117H129.89V22.8142C130.2 22.7305 130.572 22.6437 130.994 22.5538C131.415 22.4639 131.862 22.3802 132.333 22.3058C132.804 22.2315 133.287 22.1726 133.783 22.1323C134.279 22.092 134.766 22.0703 135.247 22.0703C136.027 22.0422 136.806 22.1643 137.54 22.4298C138.068 22.6336 138.558 22.9226 138.991 23.2854C140.088 22.5303 141.38 22.1084 142.711 22.0703C143.587 22.0398 144.46 22.1874 145.277 22.5042C145.912 22.7675 146.464 23.1956 146.877 23.7441C147.287 24.3031 147.567 24.9472 147.695 25.6288C147.851 26.4293 147.926 27.2435 147.918 28.059V35.424H144.23V28.493C144.23 27.3027 144.077 26.4595 143.771 25.9636C143.465 25.4676 142.94 25.2196 142.196 25.2196C141.914 25.2338 141.635 25.2838 141.366 25.3684C141.055 25.4482 140.759 25.5736 140.485 25.7404C140.602 26.1322 140.677 26.5354 140.708 26.9431C140.742 27.3647 140.758 27.8141 140.758 28.2946V35.424H137.057V28.493Z" fill="#F8F8F8"/>
<path d="M162.599 22.3677C161.851 24.8786 161.072 27.2344 160.262 29.4352C159.452 31.636 158.565 33.7687 157.602 35.8331C157.302 36.4907 156.953 37.1248 156.558 37.7302C156.243 38.2134 155.858 38.6479 155.417 39.0197C155.002 39.3572 154.525 39.61 154.013 39.7636C153.419 39.9295 152.804 40.0089 152.187 39.9992C151.65 40.0025 151.114 39.9485 150.588 39.838C150.176 39.7529 149.773 39.6326 149.382 39.4784L150.027 36.5275C150.358 36.6455 150.698 36.7367 151.043 36.8002C151.351 36.8502 151.662 36.8751 151.973 36.8746C152.251 36.8926 152.529 36.8546 152.791 36.7631C153.054 36.6715 153.295 36.5281 153.501 36.3415C153.899 35.9154 154.207 35.4136 154.407 34.866C153.559 33.2128 152.715 31.3529 151.874 29.2864C150.962 27.0234 150.169 24.714 149.5 22.3677H153.418C153.585 23.0125 153.78 23.711 154.004 24.4632C154.227 25.2133 154.462 25.9759 154.713 26.7446C154.965 27.5134 155.216 28.2604 155.473 28.9888C155.73 29.7173 155.975 30.3775 156.208 30.9727C156.425 30.3775 156.648 29.7142 156.88 28.9888C157.113 28.2635 157.339 27.5134 157.565 26.7446C157.792 25.9759 158.005 25.2133 158.213 24.4632C158.421 23.713 158.607 23.0125 158.771 22.3677H162.599Z" fill="#F8F8F8"/>
<path d="M70.6974 8.97699C70.5316 8.34663 70.2121 7.76723 69.7674 7.29072C69.2807 6.79759 68.6804 6.43144 68.0192 6.2244C67.1359 5.95407 66.2147 5.82846 65.2914 5.85243C64.8605 5.85243 64.4358 5.87413 64.0143 5.91442C63.5927 5.95472 63.1928 6.00432 62.8116 6.06321C62.4303 6.12211 62.08 6.1872 61.7576 6.2616C61.4353 6.33599 61.1656 6.40729 60.9517 6.47238L61.4229 9.44815C61.9394 9.2658 62.4733 9.13701 63.0161 9.06378C63.6319 8.97299 64.2535 8.92741 64.876 8.92739C65.8183 8.92739 66.4796 9.11751 66.8598 9.49775C67.0519 9.69823 67.201 9.93579 67.298 10.1959C67.395 10.456 67.4379 10.7332 67.424 11.0104V11.3576C67.1271 11.2796 66.8244 11.2257 66.5189 11.1964C66.0946 11.153 65.6683 11.1323 65.2418 11.1344C64.5502 11.133 63.8604 11.2036 63.1835 11.3452C62.562 11.4702 61.9665 11.7009 61.4229 12.0272C60.9088 12.3365 60.4821 12.7718 60.183 13.2919C59.8611 13.8845 59.7028 14.5521 59.7242 15.2261C59.7037 15.917 59.8393 16.6036 60.121 17.2348C60.3762 17.7707 60.7701 18.2287 61.2617 18.5615C61.8 18.9173 62.4021 19.1657 63.0347 19.293C63.7893 19.4486 64.5582 19.5235 65.3286 19.5162C66.4696 19.5301 67.61 19.4513 68.7383 19.2806C69.6806 19.1215 70.4163 18.9851 70.9453 18.8714V11.184C70.9622 10.4405 70.8788 9.69819 70.6974 8.97699ZM67.424 16.5652C67.1612 16.6056 66.8962 16.6305 66.6305 16.6396C66.2988 16.6396 65.9516 16.6644 65.5889 16.6644C65.0358 16.6925 64.4849 16.5771 63.9895 16.3296C63.79 16.2033 63.6297 16.0238 63.5267 15.8113C63.4238 15.5988 63.3822 15.3618 63.4067 15.1269C63.3965 14.8646 63.4657 14.6054 63.6051 14.383C63.7419 14.1802 63.9302 14.0176 64.1507 13.9118C64.4045 13.7895 64.6768 13.7099 64.9566 13.6762C65.2814 13.6342 65.6086 13.6135 65.9361 13.6142C66.2096 13.6152 66.4828 13.6318 66.7545 13.6638C67.0644 13.6979 67.2752 13.7289 67.424 13.763V16.5652Z" fill="#F8F8F8"/>
<path d="M82.1789 9.46028C81.8472 9.37659 81.4597 9.28979 81.0134 9.1999C80.5396 9.10691 80.0578 9.06122 79.5751 9.06351C79.2972 9.06734 79.0197 9.08804 78.7443 9.1255C78.4973 9.1517 78.2527 9.1973 78.0128 9.26189V19.2307H74.3179V6.89367C75.0843 6.63188 75.8645 6.41249 76.6551 6.23652C77.6446 6.02013 78.6553 5.91615 79.6681 5.92655C79.8665 5.92655 80.1051 5.92655 80.3872 5.96375C80.6693 6.00094 80.9483 6.02264 81.2304 6.06294C81.5124 6.10323 81.7914 6.15283 82.0735 6.21173C82.3194 6.259 82.5601 6.32958 82.7926 6.42251L82.1789 9.46028Z" fill="#F8F8F8"/>
<path d="M83.9146 12.7212C83.9082 11.8124 84.0635 10.9097 84.3734 10.0554C84.6655 9.25038 85.1167 8.51244 85.7001 7.88554C86.294 7.25432 87.0115 6.75208 87.8079 6.41006C88.7021 6.03365 89.6649 5.84784 90.6349 5.8645C91.8706 5.84999 93.0956 6.09499 94.2306 6.58364L93.4619 9.53462C93.0896 9.39431 92.7085 9.27835 92.3212 9.18744C91.8657 9.0836 91.3996 9.03366 90.9325 9.03865C89.8414 9.03865 89.0271 9.37756 88.4899 10.0554C87.9229 10.8297 87.6385 11.775 87.6839 12.7336C87.6839 13.9094 87.936 14.8187 88.4403 15.4614C88.9445 16.1041 89.8248 16.4264 91.0813 16.4285C91.5633 16.426 92.0443 16.3846 92.5196 16.3045C93.0049 16.2292 93.4794 16.096 93.933 15.9077L94.4538 18.9331C93.933 19.1419 93.3932 19.2997 92.8419 19.4043C92.1396 19.5426 91.4251 19.6091 90.7093 19.6027C89.6592 19.6284 88.6144 19.4473 87.6343 19.0695C86.8286 18.7494 86.1043 18.2538 85.5141 17.6188C84.9532 16.9945 84.5381 16.2534 84.299 15.449C84.0342 14.5642 83.9046 13.6446 83.9146 12.7212Z" fill="#F8F8F8"/>
<path d="M108.192 11.8783V16.7015L104.497 17.3215V12.3247C104.497 11.1344 104.342 10.2912 104.038 9.79526C103.735 9.29929 103.167 9.05131 102.34 9.05131C102.028 9.04896 101.716 9.07804 101.41 9.13811C101.123 9.1939 100.862 9.2559 100.629 9.32409V17.9848L96.9338 18.6048V0.595155L100.629 0V6.24913C100.942 6.14986 101.26 6.07116 101.583 6.01354C101.955 5.94063 102.333 5.90327 102.712 5.90195C103.612 5.87389 104.509 6.02128 105.353 6.33592C106.013 6.5954 106.594 7.0228 107.039 7.57582C107.473 8.1297 107.778 8.7736 107.932 9.46048C108.112 10.2536 108.2 11.065 108.192 11.8783Z" fill="#F8F8F8"/>
<path d="M115.235 6.1994V15.5111L111.54 16.1341V6.1994H115.235Z" fill="#F8F8F8"/>
<path d="M122.451 16.5898C122.939 16.6201 123.428 16.5526 123.889 16.3914C124.029 16.3215 124.145 16.2104 124.22 16.073C124.296 15.9356 124.327 15.7785 124.311 15.6227C124.299 15.456 124.243 15.2955 124.148 15.1581C124.053 15.0206 123.923 14.9113 123.771 14.8415C123.24 14.5418 122.685 14.2888 122.11 14.0852C121.574 13.8896 121.048 13.6661 120.535 13.4156C120.093 13.2043 119.687 12.9239 119.333 12.5849C118.999 12.2581 118.737 11.8654 118.564 11.4318C118.369 10.9172 118.277 10.3698 118.291 9.8199C118.27 9.26246 118.382 8.70803 118.62 8.20318C118.857 7.69833 119.212 7.25778 119.655 6.91852C120.564 6.20971 121.812 5.85427 123.399 5.8522C124.165 5.85008 124.929 5.92066 125.681 6.06298C126.271 6.16702 126.852 6.32048 127.417 6.52175L126.772 9.39833C126.313 9.24064 125.845 9.10819 125.371 9.00156C124.813 8.8807 124.243 8.82247 123.672 8.82797C122.515 8.82797 121.936 9.15035 121.936 9.7951C121.934 9.93105 121.959 10.0661 122.011 10.1919C122.082 10.3293 122.189 10.4449 122.321 10.5266C122.517 10.6605 122.724 10.7767 122.941 10.8738C123.26 11.0276 123.587 11.1652 123.92 11.2861C124.61 11.5341 125.281 11.8314 125.929 12.1757C126.389 12.4172 126.808 12.7311 127.169 13.1056C127.462 13.4338 127.678 13.8236 127.801 14.2464C127.932 14.7132 127.995 15.1967 127.987 15.6816C127.987 16.969 127.504 17.9423 126.536 18.6015C125.569 19.2607 124.201 19.5904 122.432 19.5904C121.46 19.6064 120.49 19.5023 119.543 19.2804C118.999 19.1539 118.464 18.9882 117.944 18.7844L118.564 15.7838C119.191 16.0326 119.838 16.2276 120.498 16.3666C121.139 16.5085 121.794 16.5833 122.451 16.5898Z" fill="#F8F8F8"/>
<path d="M113.322 0.343765H113.437H113.505H113.567H113.623L113.735 0.365463C113.934 0.40921 114.123 0.489058 114.293 0.601045C114.399 0.67005 114.497 0.751191 114.584 0.842827L114.64 0.904822V0.92342L115.511 1.96184L114.782 2.88867L114.658 3.03746L114.627 3.07465L114.513 3.20794L113.384 4.55634L112.253 3.20794L112.138 3.07465L112.107 3.03746L111.99 2.89487L111.227 1.98354L112.11 0.93272L112.141 0.898623L112.16 0.870725C112.244 0.781288 112.339 0.702204 112.442 0.635142C112.595 0.53494 112.764 0.460588 112.941 0.41506C112.967 0.405932 112.994 0.399695 113.022 0.396461C113.067 0.384932 113.112 0.376645 113.158 0.371663H113.223H113.31L113.322 0.343765Z" fill="#FD0075"/>
</svg>
